<?xml version="1.0" standalone="no"?>
<!DOCTYPE svg PUBLIC "-//W3C//DTD SVG 20010904//EN"
 "http://www.w3.org/TR/2001/REC-SVG-20010904/DTD/svg10.dtd">
<svg version="1.0" xmlns="http://www.w3.org/2000/svg"
 width="597.000000pt" height="418.000000pt" viewBox="0 0 597.000000 418.000000"
 preserveAspectRatio="xMidYMid meet">

<g transform="translate(0.000000,418.000000) scale(0.100000,-0.100000)"
fill='#3498db' stroke="none">
<path d="M1357 2943 c-4 -3 -7 -334 -7 -734 0 -654 2 -727 16 -733 9 -3 213
-6 455 -6 l439 0 0 390 0 391 -75 -51 c-41 -27 -78 -50 -83 -50 -5 0 -44 22
-86 50 l-76 49 -2 -269 -3 -270 -117 71 -118 70 0 424 0 424 200 -130 c128
-84 204 -128 212 -123 7 4 95 61 195 126 100 65 186 118 190 118 5 0 8 -299 7
-665 0 -366 1 -665 2 -665 1 0 17 25 34 55 l31 55 118 0 c78 0 121 4 129 12
17 17 17 1439 0 1456 -9 9 -186 12 -733 12 -397 0 -725 -3 -728 -7z"/>
<path d="M3102 2771 c-111 -39 -149 -110 -159 -296 -6 -124 8 -237 36 -294 33
-64 107 -104 255 -138 93 -21 130 -37 155 -69 19 -24 21 -40 21 -140 0 -105
-1 -114 -22 -128 -33 -23 -113 -21 -138 4 -17 17 -20 33 -20 110 l0 90 -147 0
-146 0 6 -122 c7 -136 16 -179 50 -229 47 -72 178 -105 382 -96 281 12 345 97
333 442 -8 235 -39 275 -257 340 -190 57 -211 76 -211 199 0 92 13 120 59 129
34 7 91 -7 103 -25 4 -7 8 -46 8 -85 l0 -73 136 0 136 0 -3 128 c-4 143 -17
178 -78 219 -56 38 -99 46 -276 50 -147 3 -177 1 -223 -16z"/>
<path d="M4024 2772 c-74 -26 -99 -45 -123 -95 -28 -57 -41 -139 -41 -252 0
-173 26 -257 94 -306 36 -27 78 -42 265 -96 31 -8 67 -28 83 -43 27 -28 28
-31 28 -139 0 -134 -10 -151 -89 -151 -80 0 -95 19 -99 129 l-4 91 -140 0
-141 0 6 -127 c8 -194 37 -252 146 -295 49 -19 77 -22 221 -22 198 -1 259 13
319 73 61 61 71 106 71 315 0 202 -7 241 -52 292 -41 46 -80 65 -212 103 -173
50 -196 74 -196 202 0 104 13 122 87 122 66 0 83 -24 83 -114 l0 -69 136 0
136 0 -4 128 c-4 143 -17 178 -77 219 -56 38 -99 46 -276 50 -146 3 -177 1
-221 -15z"/>
</g>
</svg>
